:SAMPLES-PER-SECOND 30
:FULLY-SPECIFIED
:DEGREES
474
root  -24.0344 39.1074 -32.7905 -2.09882 -54.6602 -3.9751
RightUpLeg  17.2045 -22.481 -13.2642
RightLeg  32.3718 1.77314 0.868632
RightFoot  -2.89762 -1.55422 21.2253
RightToes  -5.8209e-011 0 -3.6325e-017
Spine  3.40559 2.26526 3.15268
Spine1  10.738 3.90133 -4.73058
HEad  -21.0493 3.57906 -60.8885
LeftShoulder1  7.79702 -11.8727 -44.1466
LeftArm  -4.63326 38.3718 -17.7018
LeftForeArm  21.4154 -1.81204 -4.81242
LeftHand  -0.244104 0.0205437 5.32207
RightShoulder  5.9438 9.16766 40.727
RightArm  -4.59583 -8.14337 31.5831
RightForeArm  2.88015 17.1196 5.54196
RightHand  -0.467207 -0.886273 -12.0157
LeftUpLeg  -14.8508 15.9969 -10.4823
LeftLeg  12.5521 24.0258 0.812072
LeftFoot  -3.84072 -1.2466 19.1192
LeftToes  1.76439e-010 -1.07097e-011 2.32476e-011
475
root  -25.0539 39.1734 -32.06 -4.19452 -53.0638 -1.78523
RightUpLeg  9.32359 -17.1293 -12.2777
RightLeg  44.9139 -0.0186479 -0.220905
RightFoot  10.2861 -3.1535 16.9433
RightToes  -5.8209e-011 0 -3.6325e-017
Spine  4.52787 2.14683 2.61737
Spine1  9.99912 4.15531 -6.48696
HEad  -8.63083 13.714 -32.8797
LeftShoulder1  7.93043 -12.0994 -44.2554
LeftArm  -4.91273 34.9715 -17.9423
LeftForeArm  23.0369 -1.86547 -4.95636
LeftHand  -0.244104 0.0205437 5.32207
RightShoulder  5.99383 9.33153 40.5299
RightArm  -7.3687 -10.4172 33.9703
RightForeArm  6.41566 13.6366 6.08294
RightHand  -0.414986 -1.01703 -10.915
LeftUpLeg  -13.2735 17.5619 -11.9773
LeftLeg  14.4301 21.4833 1.72645
LeftFoot  -6.11233 -0.785765 17.8483
LeftToes  1.76439e-010 -1.07097e-011 2.32476e-011
476
root  -25.9753 39.1436 -31.367 -5.89777 -51.5121 0.119766
RightUpLeg  1.38257 -12.0929 -11.718
RightLeg  55.2835 0.850397 0.921247
RightFoot  18.6785 -2.97984 11.4521
RightToes  -5.8209e-011 0 -3.6325e-017
Spine  5.49644 2.15742 1.4809
Spine1  9.59445 4.0781 -7.29845
HEad  35.8759 57.356 78.703
LeftShoulder1  7.94487 -12.0344 -44.5351
LeftArm  -6.21634 31.0186 -19.2615
LeftForeArm  23.7818 -3.25173 -4.98969
LeftHand  -0.244104 0.0205437 5.32207
RightShoulder  6.15195 9.63161 40.6568
RightArm  -6.34485 -11.7956 34.8947
RightForeArm  11.7466 11.1788 6.53439
RightHand  -0.311894 -1.45826 -9.10629
LeftUpLeg  -11.3778 15.3481 -12.2272
LeftLeg  16.0194 22.6243 1.48555
LeftFoot  -8.3481 -0.398214 17.0924
LeftToes  1.76439e-010 -1.07097e-011 2.32476e-011
477
root  -26.9117 39.2787 -30.6119 -6.4873 -48.7423 0.58493
RightUpLeg  -4.70903 -8.84991 -11.2519
RightLeg  61.4913 1.03007 1.48613
RightFoot  18.9911 -2.16872 8.44919
RightToes  -5.8209e-011 0 -3.6325e-017
Spine  5.88917 1.6101 0.423263
Spine1  9.63855 3.16559 -6.52123
HEad  19.6489 41.3547 36.2872
LeftShoulder1  8.06498 -11.8873 -45.682
LeftArm  -7.52911 26.1466 -20.4795
LeftForeArm  23.3354 -5.15258 -5.14712
LeftHand  -0.244104 0.0205437 5.32207
RightShoulder  6.37434 9.90515 41.3205
RightArm  -2.42112 -12.5472 34.5396
RightForeArm  17.1545 10.8713 6.87397
RightHand  -0.303718 -1.36661 -8.63589
LeftUpLeg  -8.55213 11.9324 -12.0649
LeftLeg  15.8522 23.3999 0.979161
LeftFoot  -9.488 -0.216534 16.8153
LeftToes  1.76439e-010 -1.07097e-011 2.32476e-011
478
root  -27.8025 39.5455 -29.8265 -5.87616 -44.5962 -0.421127
RightUpLeg  -9.33626 -7.34943 -10.5132
RightLeg  63.3765 -0.0468522 -0.656548
RightFoot  15.4193 -1.62931 7.29753
RightToes  -5.8209e-011 0 -3.6325e-017
Spine  5.77879 0.624345 0.213066
Spine1  10.2388 1.81219 -5.2131
HEad  -11.3558 9.58815 -45.1406
LeftShoulder1  8.36873 -11.9663 -47.2012
LeftArm  -8.32299 19.9986 -21.6552
LeftForeArm  23.3068 -7.07306 -5.51173
LeftHand  -0.244104 0.0205437 5.32207
RightShoulder  6.44119 9.90238 41.7962
RightArm  1.52431 -13.5371 34.3109
RightForeArm  19.1043 12.5077 6.79579
RightHand  -0.368008 -1.01291 -9.69699
LeftUpLeg  -5.31345 8.22218 -11.5078
LeftLeg  14.5196 23.0829 0.4546
LeftFoot  -10.1177 -0.11288 16.131
LeftToes  1.76439e-010 -1.07097e-011 2.32476e-011
479
root  -28.6315 39.748 -29.082 -5.06299 -39.9335 -1.681
RightUpLeg  -13.2099 -6.34566 -9.71885
RightLeg  61.845 -1.46144 -3.48707
RightFoot  12.4496 -1.11878 5.71007
RightToes  -5.8209e-011 0 -3.6325e-017
Spine  5.67217 -0.174093 0.0850717
Spine1  10.9835 0.57303 -3.92767
HEad  29.8297 55.6398 70.617
LeftShoulder1  8.66798 -12.2238 -48.1066
LeftArm  -8.4249 13.1422 -23.8233
LeftForeArm  24.6251 -9.28143 -5.88101
LeftHand  -0.244104 0.0205437 5.32207
RightShoulder  6.30045 9.6682 41.5942
RightArm  3.92608 -15.0505 34.7908
RightForeArm  16.1571 14.65 6.39778
RightHand  -0.408255 -0.953406 -10.6397
LeftUpLeg  -2.43655 5.21052 -10.6673
LeftLeg  13.5409 21.5785 -0.193413
LeftFoot  -10.9592 0.015212 15.3082
LeftToes  1.76439e-010 -1.07097e-011 2.32476e-011
480
root  -29.4337 39.9361 -28.3483 -4.55426 -35.1934 -2.75853
RightUpLeg  -16.1354 -5.50109 -9.02593
RightLeg  57.2945 -2.83178 -5.19006
RightFoot  10.6569 -0.457079 2.7238
RightToes  -5.8209e-011 0 -3.6325e-017
Spine  6.08387 -0.744968 -0.413206
Spine1  11.1637 -0.557023 -2.14428
HEad  24.5842 52.3688 63.8668
LeftShoulder1  8.84289 -12.464 -48.342
LeftArm  -6.66276 6.48897 -27.0636
LeftForeArm  25.6967 -12.2435 -5.92869
LeftHand  -0.244104 0.0205437 5.32207
RightShoulder  6.15014 9.49069 41.1241
RightArm  5.24433 -16.6162 35.2718
RightForeArm  10.7634 16.3226 6.11429
RightHand  -0.406025 -1.08206 -10.8762
LeftUpLeg  0.618633 3.59577 -9.55687
LeftLeg  12.1795 18.3748 -1.28157
LeftFoot  -11.4188 0.0795901 15.0499
LeftToes  1.76439e-010 -1.07097e-011 2.32476e-011
481
root  -30.2041 40.1197 -27.6034 -4.31311 -30.5115 -3.65645
RightUpLeg  -17.8046 -5.19146 -8.60673
RightLeg  49.8203 -4.53764 -6.06302
RightFoot  8.53682 -0.125187 1.07054
RightToes  -5.8209e-011 0 -3.6325e-017
Spine  6.98073 -1.26821 -0.816497
Spine1  10.8448 -1.59123 -0.338353
HEad  14.7819 39.7208 36.0977
LeftShoulder1  9.01887 -12.7015 -48.5833
LeftArm  -2.20598 0.411903 -30.348
LeftForeArm  24.9731 -15.9703 -5.40159
LeftHand  -0.244104 0.0205437 5.32207
RightShoulder  6.13406 9.51884 40.9112
RightArm  6.17275 -17.6601 35.2343
RightForeArm  7.00763 17.2776 5.9913
RightHand  -0.418516 -0.996327 -11.0033
LeftUpLeg  3.60604 3.02632 -8.33863
LeftLeg  10.8863 14.0494 -2.04242
LeftFoot  -11.7377 0.122126 14.8385
LeftToes  1.76439e-010 -1.07097e-011 2.32476e-011
482
root  -30.9908 40.1482 -26.8071 -4.172 -26.4834 -4.14755
RightUpLeg  -18.5411 -5.70066 -8.5643
RightLeg  39.98 -6.55548 -6.11522
RightFoot  6.64681 -0.231383 1.75455
RightToes  -5.8209e-011 0 -3.6325e-017
Spine  7.53346 -1.61255 -0.789861
Spine1  10.6144 -2.13485 0.210978
HEad  -12.9195 -4.03521 -66.5418
LeftShoulder1  9.27437 -13.0258 -48.9838
LeftArm  3.4926 -4.98631 -33.2286
LeftForeArm  23.5523 -20.0135 -4.35569
LeftHand  -0.244104 0.0205437 5.32207
RightShoulder  6.1862 9.64143 40.8713
RightArm  6.36331 -17.9154 35.0342
RightForeArm  7.33348 17.2104 6.01731
RightHand  -0.438288 -0.770488 -10.9874
LeftUpLeg  5.49465 3.05656 -7.31832
LeftLeg  11.4685 9.97155 -1.92276
LeftFoot  -13.2397 0.312797 14.0539
LeftToes  1.76439e-010 -1.07097e-011 2.32476e-011
483
root  -31.8175 40.0479 -25.896 -3.90027 -23.6091 -4.18997
RightUpLeg  -18.8071 -7.55623 -8.34507
RightLeg  28.2519 -6.99366 -4.44075
RightFoot  6.15515 -0.482445 3.39644
RightToes  -5.8209e-011 0 -3.6325e-017
Spine  7.22145 -1.6581 -0.460391
Spine1  10.5886 -2.03816 -0.239074
HEad  -9.23801 -0.204311 -57.9131
LeftShoulder1  9.4657 -13.3323 -49.0862
LeftArm  6.70531 -9.33776 -36.0536
LeftForeArm  24.8448 -23.8981 -3.78102
LeftHand  -0.244104 0.0205437 5.32207
RightShoulder  6.22518 9.76448 40.7371
RightArm  5.77947 -17.4506 34.9229
RightForeArm  10.5655 15.9682 6.34206
RightHand  -0.411273 -0.790329 -10.3406
LeftUpLeg  6.77233 3.40255 -6.48043
LeftLeg  12.7352 6.78788 -1.80746
LeftFoot  -15.3096 0.559022 13.3725
LeftToes  1.76439e-010 -1.07097e-011 2.32476e-011
484
root  -32.6339 39.962 -24.9073 -3.58978 -21.5039 -3.88023
RightUpLeg  -18.4213 -10.2 -7.95547
RightLeg  14.972 -4.50249 -1.08972
RightFoot  6.45767 -0.880755 5.89525
RightToes  -5.8209e-011 0 -3.6325e-017
Spine  6.68936 -1.55568 -0.307509
Spine1  10.4137 -1.76904 -0.38617
HEad  -8.47238 0.444692 -57.4036
LeftShoulder1  9.49419 -13.4673 -48.8414
LeftArm  6.40442 -12.392 -38.737
LeftForeArm  29.2638 -27.5982 -4.36105
LeftHand  -0.244104 0.0205437 5.32207
RightShoulder  6.28578 9.92984 40.6177
RightArm  5.00971 -16.5668 34.5657
RightForeArm  13.9389 14.0889 6.91813
RightHand  -0.369272 -0.93984 -9.58599
LeftUpLeg  8.51726 3.76049 -5.74288
LeftLeg  12.7085 4.18653 -2.17415
LeftFoot  -16.5391 0.703906 13.2316
LeftToes  1.76439e-010 -1.07097e-011 2.32476e-011
485
root  -33.467 39.8218 -23.8705 -3.67761 -19.3948 -3.24945
RightUpLeg  -16.9637 -9.89346 -9.00568
RightLeg  2.44233 -2.92238 2.47323
RightFoot  5.87733 -1.3375 9.1205
RightToes  -5.8209e-011 0 -3.6325e-017
Spine  6.60542 -1.57383 -0.722041
Spine1  9.96774 -1.76451 -0.155514
HEad  -8.52865 -0.341297 -59.4358
LeftShoulder1  9.47214 -13.4755 -48.7038
LeftArm  5.85734 -14.4322 -40.7047
LeftForeArm  32.7242 -31.1905 -4.99858
LeftHand  -0.244104 0.0205437 5.32207
RightShoulder  6.39211 10.1363 40.6848
RightArm  4.05027 -15.5225 33.8381
RightForeArm  16.1422 12.3762 7.38932
RightHand  -0.373714 -0.906776 -9.62641
LeftUpLeg  10.6918 4.21364 -5.05037
LeftLeg  12.5788 1.49613 -2.63331
LeftFoot  -17.8428 0.841619 12.8879
LeftToes  1.76439e-010 -1.07097e-011 2.32476e-011
486
root  -34.3439 39.5584 -22.7529 -4.19904 -17.0892 -2.67947
RightUpLeg  -15.7634 -9.46676 -9.70492
RightLeg  -4.41381 -1.52327 3.88461
RightFoot  3.46266 -1.42151 11.0569
RightToes  -5.8209e-011 0 -3.6325e-017
Spine  6.78198 -1.80364 -1.13851
Spine1  9.68541 -2.00104 -0.0699106
HEad  -4.75492 11.3335 -34.5519
LeftShoulder1  9.48907 -13.4924 -48.7427
LeftArm  5.51788 -15.864 -41.7155
LeftForeArm  34.5803 -34.223 -5.62914
LeftHand  -0.244104 0.0205437 5.32207
RightShoulder  6.46273 10.2664 40.7513
RightArm  2.2338 -14.2947 33.1384
RightForeArm  17.8668 11.063 7.48531
RightHand  -0.396243 -0.781785 -9.9516
LeftUpLeg  12.9695 4.94213 -4.05583
LeftLeg  13.6102 -1.55087 -2.86199
LeftFoot  -20.0404 1.02044 11.792
LeftToes  1.76439e-010 -1.07097e-011 2.32476e-011
